name Walk2.mot
datacolumns 19
datarows 17
range 1.35600000 1.37200000
endheader

                time	   L_ground_force_vx	   L_ground_force_vy	   L_ground_force_vz	   L_ground_force_px	   L_ground_force_py	   L_ground_force_pz	   R_ground_force_vx	   R_ground_force_vy	   R_ground_force_vz	   R_ground_force_px	   R_ground_force_py	   R_ground_force_pz	   L_ground_torque_x	   L_ground_torque_y	   L_ground_torque_z	   R_ground_torque_x	   R_ground_torque_y	   R_ground_torque_z	
          1.35600000	          0.00000000	          0.00000000	          0.00000000	          0.00000000	          0.00000000	          0.00000000	          0.00000000	          0.00000000	          0.00000000	          0.00000000	          0.00000000	          0.00000000	          0.00000000	          0.00000000	          0.00000000	          0.00000000	          0.00000000	          0.00000000	
          1.35700000	          0.00000000	          0.00000000	          0.00000000	          0.00000000	          0.00000000	          0.00000000	          0.00000000	          0.00000000	          0.00000000	          0.00000000	          0.00000000	          0.00000000	          0.00000000	          0.00000000	          0.00000000	          0.00000000	          0.00000000	          0.00000000	
          1.35800000	          0.00000000	          0.00000000	          0.00000000	          0.00000000	          0.00000000	          0.00000000	          0.00000000	          0.00000000	          0.00000000	          0.00000000	          0.00000000	          0.00000000	          0.00000000	          0.00000000	          0.00000000	          0.00000000	          0.00000000	          0.00000000	
          1.35900000	          0.00000000	          0.00000000	          0.00000000	          0.00000000	          0.00000000	          0.00000000	          0.00000000	          0.00000000	          0.00000000	          0.00000000	          0.00000000	          0.00000000	          0.00000000	          0.00000000	          0.00000000	          0.00000000	          0.00000000	          0.00000000	
          1.36000000	          0.00000000	          0.00000000	          0.00000000	          0.00000000	          0.00000000	          0.00000000	         -3.05619576	         11.28252720	         -0.13947327	         -0.17149099	          0.00000000	          0.24900564	          0.00000000	          0.00000000	          0.00000000	          0.00000000	         -0.25861862	          0.00000000	
          1.36100000	          0.00000000	          0.00000000	          0.00000000	          0.00000000	          0.00000000	          0.00000000	         -5.09866919	         15.62207392	         -0.36826104	         -0.17450164	          0.00000000	          0.25643054	          0.00000000	          0.00000000	          0.00000000	          0.00000000	         -0.38061383	          0.00000000	
          1.36200000	          0.00000000	          0.00000000	          0.00000000	          0.00000000	          0.00000000	          0.00000000	         -7.78773475	         20.46734416	         -0.71344800	         -0.18140490	          0.00000000	          0.26570411	          0.00000000	          0.00000000	          0.00000000	          0.00000000	         -0.49760751	          0.00000000	
          1.36300000	          0.00000000	          0.00000000	          0.00000000	          0.00000000	          0.00000000	          0.00000000	        -11.25060361	         26.92573545	         -1.14846220	         -0.19320964	          0.00000000	          0.27633904	          0.00000000	          0.00000000	          0.00000000	          0.00000000	         -0.58727829	          0.00000000	
          1.36400000	          0.00000000	          0.00000000	          0.00000000	          0.00000000	          0.00000000	          0.00000000	        -15.61849160	         36.76692583	         -1.61211335	         -0.20813913	          0.00000000	          0.28730502	          0.00000000	          0.00000000	          0.00000000	          0.00000000	         -0.62524647	          0.00000000	
          1.36500000	          0.00000000	          0.00000000	          0.00000000	          0.00000000	          0.00000000	          0.00000000	        -20.98189413	         51.93390213	         -2.03100784	         -0.22246847	          0.00000000	          0.29735342	          0.00000000	          0.00000000	          0.00000000	          0.00000000	         -0.59563780	          0.00000000	
          1.36600000	          0.00000000	          0.00000000	          0.00000000	          0.00000000	          0.00000000	          0.00000000	        -27.29592363	         74.12707762	         -2.31960021	         -0.23364596	          0.00000000	          0.30523643	          0.00000000	          0.00000000	          0.00000000	          0.00000000	         -0.50448577	          0.00000000	
          1.36700000	          0.00000000	          0.00000000	          0.00000000	          0.00000000	          0.00000000	          0.00000000	        -34.22265669	        104.40299697	         -2.35153423	         -0.24131946	          0.00000000	          0.31047377	          0.00000000	          0.00000000	          0.00000000	          0.00000000	         -0.37370774	          0.00000000	
          1.36800000	          0.00000000	          0.00000000	          0.00000000	          0.00000000	          0.00000000	          0.00000000	        -41.07194228	        142.72966219	         -1.93693153	         -0.24624581	          0.00000000	          0.31355025	          0.00000000	          0.00000000	          0.00000000	          0.00000000	         -0.22189526	          0.00000000	
          1.36900000	          0.00000000	          0.00000000	          0.00000000	          0.00000000	          0.00000000	          0.00000000	        -46.95490374	        187.63632690	         -0.84067976	         -0.24927848	          0.00000000	          0.31525250	          0.00000000	          0.00000000	          0.00000000	          0.00000000	         -0.06116661	          0.00000000	
          1.37000000	          0.00000000	          0.00000000	          0.00000000	          0.00000000	          0.00000000	          0.00000000	        -51.08241534	        236.24701078	          1.14210284	         -0.25105095	          0.00000000	          0.31614120	          0.00000000	          0.00000000	          0.00000000	          0.00000000	          0.09417927	          0.00000000	
          1.37100000	          0.00000000	          0.00000000	          0.00000000	          0.00000000	          0.00000000	          0.00000000	        -53.03570607	        284.84261674	          4.08723885	         -0.25199260	          0.00000000	          0.31650932	          0.00000000	          0.00000000	          0.00000000	          0.00000000	          0.22985360	          0.00000000	
          1.37200000	          0.00000000	          0.00000000	          0.00000000	          0.00000000	          0.00000000	          0.00000000	        -52.86327005	        329.71996734	          7.90221534	         -0.25238518	          0.00000000	          0.31652214	          0.00000000	          0.00000000	          0.00000000	          0.00000000	          0.34050929	          0.00000000	
